<?xml version="1.0"?>
<svg height="425" width="400" >
 <g style="fill-opacity:1.0; stroke:black;
  stroke-width:8;">
  <line x1="82" y1="10" x2="6" y2="16" style="stroke:#000000;" />
  <line x1="6" y1="16" x2="8" y2="98" style="stroke:#000000;" />
  <line x1="8" y1="98" x2="114" y2="106" style="stroke:#000000;" />
  <line x1="8" y1="98" x2="14" y2="404" style="stroke:#000000;" />
  <line x1="14" y1="404" x2="390" y2="396" style="stroke:#000000;" />
  <line x1="390" y1="396" x2="372" y2="16" style="stroke:#000000;" />
  <line x1="372" y1="16" x2="78" y2="10" style="stroke:#000000;" />
  <line x1="112" y1="108" x2="112" y2="314" style="stroke:#000000;" />
  <line x1="114" y1="212" x2="316" y2="324" style="stroke:#000000;" />
  <line x1="154" y1="402" x2="216" y2="328" style="stroke:#000000;" />
  <line x1="12" y1="160" x2="66" y2="242" style="stroke:#000000;" />
  <line x1="384" y1="292" x2="174" y2="182" style="stroke:#000000;" />
  <line x1="112" y1="110" x2="266" y2="60" style="stroke:#000000;" />
  <circle cx="62" cy="40" r="5"
   stroke-width="4"  style="fill:#ffffff;"  />
  <circle cx="72" cy="368" r="10"
   stroke-width="4"  style="fill:#ffffff;"  />
 </g>
</svg>
